<svg xmlns="http://www.w3.org/2000/svg" xmlns:xlink="http://www.w3.org/1999/xlink" width="500" zoomAndPan="magnify" viewBox="0 0 375 374.999991" height="500" preserveAspectRatio="xMidYMid meet" version="1.0"><defs><g/><clipPath id="0ae537effd"><path d="M 69 51 L 277 51 L 277 259 L 69 259 Z M 69 51 " clip-rule="nonzero"/></clipPath><clipPath id="7097c3fdd5"><path d="M 150.074219 258.089844 L 69.742188 131.414062 L 196.414062 51.082031 L 276.75 177.753906 Z M 150.074219 258.089844 " clip-rule="nonzero"/></clipPath><clipPath id="cb6d49d90b"><path d="M 41 63 L 179 63 L 179 178 L 41 178 Z M 41 63 " clip-rule="nonzero"/></clipPath><clipPath id="0730df60cd"><path d="M 81.074219 207.089844 L 0.742188 80.414062 L 127.414062 0.0820312 L 207.75 126.753906 Z M 81.074219 207.089844 " clip-rule="nonzero"/></clipPath><clipPath id="5bb55b24a8"><path d="M 0.742188 80.414062 L 81.074219 207.089844 L 207.75 126.753906 L 127.414062 0.0820312 Z M 0.742188 80.414062 " clip-rule="nonzero"/></clipPath><clipPath id="61e277b752"><path d="M 19 42 L 201 42 L 201 200 L 19 200 Z M 19 42 " clip-rule="nonzero"/></clipPath><clipPath id="236b7b4e77"><path d="M 81.074219 207.089844 L 0.742188 80.414062 L 127.414062 0.0820312 L 207.75 126.753906 Z M 81.074219 207.089844 " clip-rule="nonzero"/></clipPath><clipPath id="40fff39218"><path d="M 0.742188 80.414062 L 81.074219 207.089844 L 207.75 126.753906 L 127.414062 0.0820312 Z M 0.742188 80.414062 " clip-rule="nonzero"/></clipPath><clipPath id="19cb2ad5eb"><path d="M 30 29 L 167 29 L 167 144 L 30 144 Z M 30 29 " clip-rule="nonzero"/></clipPath><clipPath id="71875b9e73"><path d="M 81.074219 207.089844 L 0.742188 80.414062 L 127.414062 0.0820312 L 207.75 126.753906 Z M 81.074219 207.089844 " clip-rule="nonzero"/></clipPath><clipPath id="660af2657f"><path d="M 0.742188 80.414062 L 81.074219 207.089844 L 207.75 126.753906 L 127.414062 0.0820312 Z M 0.742188 80.414062 " clip-rule="nonzero"/></clipPath><clipPath id="239fe13fec"><path d="M 8 7 L 189 7 L 189 166 L 8 166 Z M 8 7 " clip-rule="nonzero"/></clipPath><clipPath id="2571f77b16"><path d="M 81.074219 207.089844 L 0.742188 80.414062 L 127.414062 0.0820312 L 207.75 126.753906 Z M 81.074219 207.089844 " clip-rule="nonzero"/></clipPath><clipPath id="90c3351127"><path d="M 0.742188 80.414062 L 81.074219 207.089844 L 207.75 126.753906 L 127.414062 0.0820312 Z M 0.742188 80.414062 " clip-rule="nonzero"/></clipPath><clipPath id="a8b7b8d17f"><rect x="0" width="208" y="0" height="208"/></clipPath><clipPath id="6e5e93d629"><rect x="0" width="123" y="0" height="62"/></clipPath></defs><rect x="-37.5" width="450" fill="#ffffff" y="-37.499999" height="449.999989" fill-opacity="1"/><rect x="-37.5" width="450" fill="#ffffff" y="-37.499999" height="449.999989" fill-opacity="1"/><g clip-path="url(#0ae537effd)"><g clip-path="url(#7097c3fdd5)"><g transform="matrix(1, 0, 0, 1, 69, 51)"><g clip-path="url(#a8b7b8d17f)"><g clip-path="url(#cb6d49d90b)"><g clip-path="url(#0730df60cd)"><g clip-path="url(#5bb55b24a8)"><path fill="#072638" d="M 144 166.273438 C 178.621094 144.316406 188.886719 98.453125 166.933594 63.828125 L 41.558594 143.339844 C 63.511719 177.960938 109.378906 188.226562 144 166.273438 Z M 144 166.273438 " fill-opacity="1" fill-rule="nonzero"/></g></g></g><g clip-path="url(#61e277b752)"><g clip-path="url(#236b7b4e77)"><g clip-path="url(#40fff39218)"><path stroke-linecap="butt" transform="matrix(0.205982, 0.324808, 0.324808, -0.205982, -31.376112, 75.732018)" fill="none" stroke-linejoin="miter" d="M 443.002762 259.000325 C 442.999444 365.591806 356.591576 451.993935 249.996957 452.004632 L 250.003894 66.003097 C 356.589936 65.997838 442.997504 152.414283 443.002762 259.000325 Z M 443.002762 259.000325 " stroke="#000000" stroke-width="4" stroke-opacity="1" stroke-miterlimit="10"/></g></g></g><g clip-path="url(#19cb2ad5eb)"><g clip-path="url(#71875b9e73)"><g clip-path="url(#660af2657f)"><path fill="#a42727" d="M 41.558594 143.339844 L 166.933594 63.828125 C 144.976562 29.207031 99.113281 18.941406 64.488281 40.898438 C 29.867188 62.851562 19.601562 108.71875 41.558594 143.339844 Z M 41.558594 143.339844 " fill-opacity="1" fill-rule="nonzero"/></g></g></g><g clip-path="url(#239fe13fec)"><g clip-path="url(#2571f77b16)"><g clip-path="url(#90c3351127)"><path stroke-linecap="butt" transform="matrix(0.205982, 0.324808, 0.324808, -0.205982, -31.376112, 75.732018)" fill="none" stroke-linejoin="miter" d="M 250.003894 66.003097 L 249.996957 452.004632 C 143.405476 452.001313 57.003347 365.593446 57.001227 258.993388 C 56.995969 152.407346 143.412413 65.999778 250.003894 66.003097 Z M 250.003894 66.003097 " stroke="#000000" stroke-width="4" stroke-opacity="1" stroke-miterlimit="10"/></g></g></g></g></g></g></g><g transform="matrix(1, 0, 0, 1, 104, 118)"><g clip-path="url(#6e5e93d629)"><g fill="#ffffff" fill-opacity="1"><g transform="translate(3.32232, 48.462419)"><g><path d="M 16.421875 0 L 3.234375 0 L 3.234375 -37.21875 L 16.53125 -37.21875 C 20.28125 -37.21875 23.507812 -36.472656 26.21875 -34.984375 C 28.925781 -33.503906 31.003906 -31.375 32.453125 -28.59375 C 33.910156 -25.820312 34.640625 -22.503906 34.640625 -18.640625 C 34.640625 -14.765625 33.90625 -11.429688 32.4375 -8.640625 C 30.976562 -5.859375 28.890625 -3.722656 26.171875 -2.234375 C 23.453125 -0.742188 20.203125 0 16.421875 0 Z M 11.109375 -6.734375 L 16.09375 -6.734375 C 19.601562 -6.734375 22.257812 -7.675781 24.0625 -9.5625 C 25.875 -11.457031 26.78125 -14.484375 26.78125 -18.640625 C 26.78125 -22.773438 25.875 -25.78125 24.0625 -27.65625 C 22.257812 -29.53125 19.613281 -30.46875 16.125 -30.46875 L 11.109375 -30.46875 Z M 11.109375 -6.734375 "/></g></g></g><g fill="#ffffff" fill-opacity="1"><g transform="translate(38.213961, 48.462419)"><g><path d="M 7.609375 0.46875 C 6.410156 0.46875 5.378906 0.046875 4.515625 -0.796875 C 3.660156 -1.648438 3.238281 -2.679688 3.25 -3.890625 C 3.238281 -5.078125 3.660156 -6.09375 4.515625 -6.9375 C 5.378906 -7.789062 6.410156 -8.21875 7.609375 -8.21875 C 8.773438 -8.21875 9.789062 -7.789062 10.65625 -6.9375 C 11.519531 -6.09375 11.957031 -5.078125 11.96875 -3.890625 C 11.957031 -2.679688 11.519531 -1.648438 10.65625 -0.796875 C 9.789062 0.046875 8.773438 0.46875 7.609375 0.46875 Z M 7.609375 0.46875 "/></g></g></g><g fill="#ffffff" fill-opacity="1"><g transform="translate(53.442722, 48.462419)"><g><path d="M 9.65625 0 L 1.21875 0 L 14.0625 -37.21875 L 24.203125 -37.21875 L 37.03125 0 L 28.609375 0 L 25.84375 -8.484375 L 12.40625 -8.484375 Z M 14.40625 -14.625 L 23.859375 -14.625 L 19.28125 -28.71875 L 18.984375 -28.71875 Z M 14.40625 -14.625 "/></g></g></g><g fill="#ffffff" fill-opacity="1"><g transform="translate(91.714551, 48.462419)"><g><path d="M 7.609375 0.46875 C 6.410156 0.46875 5.378906 0.046875 4.515625 -0.796875 C 3.660156 -1.648438 3.238281 -2.679688 3.25 -3.890625 C 3.238281 -5.078125 3.660156 -6.09375 4.515625 -6.9375 C 5.378906 -7.789062 6.410156 -8.21875 7.609375 -8.21875 C 8.773438 -8.21875 9.789062 -7.789062 10.65625 -6.9375 C 11.519531 -6.09375 11.957031 -5.078125 11.96875 -3.890625 C 11.957031 -2.679688 11.519531 -1.648438 10.65625 -0.796875 C 9.789062 0.046875 8.773438 0.46875 7.609375 0.46875 Z M 7.609375 0.46875 "/></g></g></g><g fill="#ffffff" fill-opacity="1"><g transform="translate(106.943312, 48.462419)"><g><path d="M 11.109375 -37.21875 L 11.109375 0 L 3.234375 0 L 3.234375 -37.21875 Z M 11.109375 -37.21875 "/></g></g></g></g></g></svg>