<svg xmlns="http://www.w3.org/2000/svg" xmlns:xlink="http://www.w3.org/1999/xlink" width="500" zoomAndPan="magnify" viewBox="0 0 375 374.999991" height="500" preserveAspectRatio="xMidYMid meet" version="1.0"><defs><g/><clipPath id="9a8bd98e62"><path d="M 121.082031 416.136719 L -64.085938 124.152344 L 227.898438 -61.015625 L 413.066406 230.96875 Z M 121.082031 416.136719 " clip-rule="nonzero"/></clipPath><clipPath id="8e99127d8d"><path d="M 30 86 L 346 86 L 346 349 L 30 349 Z M 30 86 " clip-rule="nonzero"/></clipPath><clipPath id="19c5a54855"><path d="M 121.082031 416.136719 L -64.085938 124.152344 L 227.898438 -61.015625 L 413.066406 230.96875 Z M 121.082031 416.136719 " clip-rule="nonzero"/></clipPath><clipPath id="02f2f1797a"><path d="M -63.90625 124.4375 L 121.261719 416.425781 L 413.25 231.257812 L 228.082031 -60.730469 Z M -63.90625 124.4375 " clip-rule="nonzero"/></clipPath><clipPath id="031957d6ac"><path d="M 0 36 L 375 36 L 375 375 L 0 375 Z M 0 36 " clip-rule="nonzero"/></clipPath><clipPath id="033c322c85"><path d="M 121.082031 416.136719 L -64.085938 124.152344 L 227.898438 -61.015625 L 413.066406 230.96875 Z M 121.082031 416.136719 " clip-rule="nonzero"/></clipPath><clipPath id="126d36326c"><path d="M -63.90625 124.4375 L 121.261719 416.425781 L 413.25 231.257812 L 228.082031 -60.730469 Z M -63.90625 124.4375 " clip-rule="nonzero"/></clipPath><clipPath id="d14ff0c03f"><path d="M 3 6 L 319 6 L 319 270 L 3 270 Z M 3 6 " clip-rule="nonzero"/></clipPath><clipPath id="13e921cbcb"><path d="M 121.082031 416.136719 L -64.085938 124.152344 L 227.898438 -61.015625 L 413.066406 230.96875 Z M 121.082031 416.136719 " clip-rule="nonzero"/></clipPath><clipPath id="a89281a83b"><path d="M -63.90625 124.4375 L 121.261719 416.425781 L 413.25 231.257812 L 228.082031 -60.730469 Z M -63.90625 124.4375 " clip-rule="nonzero"/></clipPath><clipPath id="8440276706"><path d="M 0 0 L 369 0 L 369 320 L 0 320 Z M 0 0 " clip-rule="nonzero"/></clipPath><clipPath id="93fb3989ee"><path d="M 121.082031 416.136719 L -64.085938 124.152344 L 227.898438 -61.015625 L 413.066406 230.96875 Z M 121.082031 416.136719 " clip-rule="nonzero"/></clipPath><clipPath id="24b4a41a76"><path d="M -63.90625 124.4375 L 121.261719 416.425781 L 413.25 231.257812 L 228.082031 -60.730469 Z M -63.90625 124.4375 " clip-rule="nonzero"/></clipPath><clipPath id="a99be9b02c"><rect x="0" width="375" y="0" height="375"/></clipPath><clipPath id="ce89014663"><rect x="0" width="317" y="0" height="123"/></clipPath></defs><rect x="-37.5" width="450" fill="#ffffff" y="-37.499999" height="449.999989" fill-opacity="1"/><rect x="-37.5" width="450" fill="#ffffff" y="-37.499999" height="449.999989" fill-opacity="1"/><g clip-path="url(#9a8bd98e62)"><g transform="matrix(1, 0, 0, 1, 0, 0)"><g clip-path="url(#a99be9b02c)"><g clip-path="url(#8e99127d8d)"><g clip-path="url(#19c5a54855)"><g clip-path="url(#02f2f1797a)"><path fill="#072638" d="M 265.980469 322.148438 C 345.707031 271.589844 369.351562 165.976562 318.792969 86.25 L 30.085938 269.339844 C 80.640625 349.0625 186.257812 372.707031 265.980469 322.148438 Z M 265.980469 322.148438 " fill-opacity="1" fill-rule="nonzero"/></g></g></g><g clip-path="url(#031957d6ac)"><g clip-path="url(#033c322c85)"><g clip-path="url(#126d36326c)"><path stroke-linecap="butt" transform="matrix(0.474322, 0.747947, 0.747947, -0.474322, -137.86081, 113.658084)" fill="none" stroke-linejoin="miter" d="M 442.998398 258.998688 C 442.999614 365.591815 356.59286 452.00062 249.999733 452.001836 L 250.001336 66.001386 C 356.588377 65.998807 442.999543 152.409286 442.998398 258.998688 Z M 442.998398 258.998688 " stroke="#000000" stroke-width="4" stroke-opacity="1" stroke-miterlimit="10"/></g></g></g><g clip-path="url(#d14ff0c03f)"><g clip-path="url(#13e921cbcb)"><g clip-path="url(#a89281a83b)"><path fill="#a42727" d="M 30.085938 269.339844 L 318.792969 86.25 C 268.234375 6.527344 162.617188 -17.117188 82.894531 33.441406 C 3.171875 84 -20.472656 189.617188 30.085938 269.339844 Z M 30.085938 269.339844 " fill-opacity="1" fill-rule="nonzero"/></g></g></g><g clip-path="url(#8440276706)"><g clip-path="url(#93fb3989ee)"><g clip-path="url(#24b4a41a76)"><path stroke-linecap="butt" transform="matrix(0.474322, 0.747947, 0.747947, -0.474322, -137.86081, 113.658084)" fill="none" stroke-linejoin="miter" d="M 250.001336 66.001386 L 249.999733 452.001836 C 143.410331 452.00069 56.999164 365.590212 57.00031 259.000809 C 57.001455 152.411407 143.411934 66.00024 250.001336 66.001386 Z M 250.001336 66.001386 " stroke="#000000" stroke-width="4" stroke-opacity="1" stroke-miterlimit="10"/></g></g></g></g></g></g><g transform="matrix(1, 0, 0, 1, 18, 113)"><g clip-path="url(#ce89014663)"><g fill="#ffffff" fill-opacity="1"><g transform="translate(2.128165, 96.950183)"><g><path d="M 33.03125 0 L 6.5 0 L 6.5 -74.8125 L 33.25 -74.8125 C 40.769531 -74.8125 47.25 -73.320312 52.6875 -70.34375 C 58.132812 -67.363281 62.316406 -63.082031 65.234375 -57.5 C 68.160156 -51.925781 69.625 -45.253906 69.625 -37.484375 C 69.625 -29.691406 68.15625 -22.992188 65.21875 -17.390625 C 62.289062 -11.785156 58.09375 -7.484375 52.625 -4.484375 C 47.15625 -1.492188 40.625 0 33.03125 0 Z M 22.328125 -13.546875 L 32.375 -13.546875 C 39.40625 -13.546875 44.738281 -15.445312 48.375 -19.25 C 52.019531 -23.050781 53.84375 -29.128906 53.84375 -37.484375 C 53.84375 -45.785156 52.019531 -51.820312 48.375 -55.59375 C 44.738281 -59.375 39.414062 -61.265625 32.40625 -61.265625 L 22.328125 -61.265625 Z M 22.328125 -13.546875 "/></g></g></g><g fill="#ffffff" fill-opacity="1"><g transform="translate(72.273327, 96.950183)"><g><path d="M 15.3125 0.953125 C 12.894531 0.953125 10.820312 0.0976562 9.09375 -1.609375 C 7.363281 -3.316406 6.515625 -5.382812 6.546875 -7.8125 C 6.515625 -10.195312 7.363281 -12.242188 9.09375 -13.953125 C 10.820312 -15.660156 12.894531 -16.515625 15.3125 -16.515625 C 17.644531 -16.515625 19.679688 -15.660156 21.421875 -13.953125 C 23.160156 -12.242188 24.046875 -10.195312 24.078125 -7.8125 C 24.046875 -5.382812 23.160156 -3.316406 21.421875 -1.609375 C 19.679688 0.0976562 17.644531 0.953125 15.3125 0.953125 Z M 15.3125 0.953125 "/></g></g></g><g fill="#ffffff" fill-opacity="1"><g transform="translate(99.381483, 96.950183)"><g/></g></g><g fill="#ffffff" fill-opacity="1"><g transform="translate(123.238211, 96.950183)"><g><path d="M 19.40625 0 L 2.453125 0 L 28.28125 -74.8125 L 48.65625 -74.8125 L 74.453125 0 L 57.5 0 L 51.953125 -17.0625 L 24.953125 -17.0625 Z M 28.96875 -29.40625 L 47.96875 -29.40625 L 38.765625 -57.71875 L 38.171875 -57.71875 Z M 28.96875 -29.40625 "/></g></g></g><g fill="#ffffff" fill-opacity="1"><g transform="translate(200.178808, 96.950183)"><g><path d="M 15.3125 0.953125 C 12.894531 0.953125 10.820312 0.0976562 9.09375 -1.609375 C 7.363281 -3.316406 6.515625 -5.382812 6.546875 -7.8125 C 6.515625 -10.195312 7.363281 -12.242188 9.09375 -13.953125 C 10.820312 -15.660156 12.894531 -16.515625 15.3125 -16.515625 C 17.644531 -16.515625 19.679688 -15.660156 21.421875 -13.953125 C 23.160156 -12.242188 24.046875 -10.195312 24.078125 -7.8125 C 24.046875 -5.382812 23.160156 -3.316406 21.421875 -1.609375 C 19.679688 0.0976562 17.644531 0.953125 15.3125 0.953125 Z M 15.3125 0.953125 "/></g></g></g><g fill="#ffffff" fill-opacity="1"><g transform="translate(227.286964, 96.950183)"><g/></g></g><g fill="#ffffff" fill-opacity="1"><g transform="translate(251.143692, 96.950183)"><g><path d="M 22.328125 -74.8125 L 22.328125 0 L 6.5 0 L 6.5 -74.8125 Z M 22.328125 -74.8125 "/></g></g></g><g fill="#ffffff" fill-opacity="1"><g transform="translate(280.005553, 96.950183)"><g><path d="M 15.3125 0.953125 C 12.894531 0.953125 10.820312 0.0976562 9.09375 -1.609375 C 7.363281 -3.316406 6.515625 -5.382812 6.546875 -7.8125 C 6.515625 -10.195312 7.363281 -12.242188 9.09375 -13.953125 C 10.820312 -15.660156 12.894531 -16.515625 15.3125 -16.515625 C 17.644531 -16.515625 19.679688 -15.660156 21.421875 -13.953125 C 23.160156 -12.242188 24.046875 -10.195312 24.078125 -7.8125 C 24.046875 -5.382812 23.160156 -3.316406 21.421875 -1.609375 C 19.679688 0.0976562 17.644531 0.953125 15.3125 0.953125 Z M 15.3125 0.953125 "/></g></g></g></g></g></svg>